<?xml version="1.0" encoding="UTF-8"?>
<svg id="Layer_2" data-name="Layer 2" xmlns="http://www.w3.org/2000/svg" viewBox="0 0 681.23 219.33">
  <defs>
    <style>
      .cls-1 {
        fill: #fff;
      }

      .cls-2 {
        fill: #11173f;
      }
    </style>
  </defs>
  <g id="Layer_1-2" data-name="Layer 1">
    <g>
      <path class="cls-2" d="m169.03,77.87c0,15.86-.47,31.74.1,47.59,1.02,28.3-11.55,49.34-33.67,65.55-15.12,11.08-31.45,20.12-48.55,27.77-1.14.51-2.86.78-3.92.3-20.38-9.2-40.09-19.63-57.08-34.36C8.85,169.91-.23,151.37,0,128.27.37,91.74.13,55.19.03,18.65c0-2.63.84-3.78,3.19-4.8C20.75,6.26,39.14,2.07,58.09.93,73.33,0,88.68-.3,103.93.33c21.38.88,42.25,4.93,62.03,13.58,2.4,1.05,3.14,2.32,3.13,4.88-.11,19.69-.06,39.38-.06,59.08Zm-2.21-.59c0-19.14-.04-38.28.06-57.42.01-2.33-.74-3.39-2.86-4.32-17.43-7.58-35.8-11.21-54.59-12.72-18.33-1.47-36.7-1.45-55.02.52-16.79,1.81-33.13,5.42-48.8,11.88-2.59,1.07-3.55,2.41-3.54,5.28.11,35.87.27,71.75,0,107.62-.17,22.58,8.8,40.74,25.6,55.16,16.55,14.21,35.62,24.41,55.37,33.39.93.42,2.39.38,3.33-.05,18.69-8.63,36.81-18.31,52.81-31.41,18.26-14.95,28.38-33.86,27.73-58.07-.44-16.61-.08-33.25-.08-49.87Z"/>
      <path class="cls-1" d="m307.76,82.08c-2.74,7.11-5.43,14.23-8.25,21.31-.38.94-1.38,1.64-2.09,2.44-.75-.88-1.89-1.64-2.2-2.65-2.81-9.07-5.59-18.17-8.14-27.32-.9-3.23-2.22-5.66-5.81-6.21-.32-.05-.58-.5-1.51-1.36h15.8c-.11.49-.12.87-.2.88-4.49.85-3.74,3.82-2.84,6.89,1.75,5.98,3.46,11.96,5.21,17.94.26.89.67,1.73,1.35,3.43,2.74-7.2,5.52-13.5,7.45-20.05.77-2.61-.71-5.58-3.56-7.13-.79-.43-1.6-.82-2.24-1.98h14.98c.07.25.13.5.2.74-.68.24-1.34.59-2.04.71-2.35.42-3.16,1.75-2.46,3.99,2.41,7.7,4.84,15.4,7.5,23.87.89-2.43,1.58-4.2,2.18-5.99,1.72-5.18,3.42-10.36,5.08-15.55,1.4-4.4,1.11-4.91-3.2-6.38-.44-.15-.79-.55-1.99-1.42h14.71c-.28.63-.37,1.24-.61,1.31-4.48,1.22-5.75,4.91-6.99,8.75-2.7,8.29-5.47,16.56-8.33,24.79-.36,1.03-1.41,1.83-2.14,2.73-.76-.89-1.88-1.65-2.22-2.68-2.37-7.02-4.57-14.1-6.83-21.16-.26.03-.52.05-.78.08Z"/>
      <path class="cls-1" d="m628.59,68.21h14.35c-.27.67-.34,1.2-.5,1.23-5.02.81-5.09,4.45-5.06,8.38.09,9.17.03,18.34-.69,28.31-1.09-.8-2.46-1.38-3.23-2.42-6.44-8.68-12.77-17.45-19.14-26.18-.61-.83-1.28-1.61-2.63-2.23,0,4.09,0,8.18,0,12.27,0,3.17.07,6.34-.02,9.51-.1,3.28,1.04,5.5,4.51,6.12.6.11,1.14.58,1.54,1.59h-14.86c.98-.78,1.45-1.43,2.04-1.57,3.2-.74,4.48-2.84,4.49-5.94,0-7.65,0-15.3.02-22.95,0-2.29-1.08-3.69-3.26-4.29-.89-.24-1.78-.49-3.63-1.01,1.43-.65,1.97-1.05,2.57-1.13,5.74-.78,10.17.27,13.59,6.02,4.55,7.65,10.35,14.57,16.33,21.71,0-2.75,0-5.49,0-8.24,0-3.5,0-6.99,0-10.49-.02-4.93-.59-5.68-5.34-7.18-.44-.14-.83-.46-1.25-.7.06-.26.12-.52.18-.78Z"/>
      <path class="cls-1" d="m396.89,52.07h-17.44c1.13-.81,1.48-1.25,1.9-1.33,4.75-.89,4.76-.88,4.76-5.47,0-7.65-.18-15.3.08-22.94.12-3.5-1.05-5.1-4.49-5.15-.47,0-.94-.27-1.96-.59.9-.6,1.36-1.17,1.81-1.16,6.76.12,13.57-.11,20.27.6,7.22.77,10.75,7.15,7.22,12.65-1.42,2.21-4.12,3.61-6.34,5.47,4.98.36,6.1,4.15,6.75,8.6.8,5.46.97,5.44,6.17,9.24-4.04,2.77-10.43.36-11.13-4.23-.28-1.83-.43-3.69-.56-5.54-.4-5.72-6.36-9.42-11.58-7.06-.54.24-.95,1.36-.97,2.09-.11,3.16.09,6.34-.09,9.5-.15,2.63.82,3.89,3.48,3.92.75,0,1.49.34,2.23.53l-.11.89Zm-5.56-18.87c3.25-.34,6.08-.33,8.75-1,3.12-.78,4.38-3.39,4.39-7.51.01-3.12-.97-5.71-4.21-6.54-2.28-.58-4.72-.72-7.08-.72-.62,0-1.74,1.23-1.76,1.92-.16,4.33-.08,8.67-.08,13.83Z"/>
      <path class="cls-1" d="m371.75,156.77c-5.36,3.33-11.14.69-11.8-4.77-.22-1.84-.12-3.72-.4-5.55-.66-4.31-2.06-5.66-6.35-6.08-1.92-.19-3.88-.03-6.28-.03,0,4.5-.14,8.82.12,13.13.05.81,1.63,1.67,2.65,2.23.88.48,1.98.55,2.98.8-.05.3-.11.6-.16.91h-16.64l-.13-.65c.49-.28.99-.83,1.47-.81,3.73.14,4.42-1.86,4.33-5.17-.21-7.75-.21-15.52,0-23.28.09-3.18-.58-5.07-4.12-5.03-.53,0-1.07-.49-2.14-1.01,1.07-.4,1.61-.78,2.15-.77,6.23.05,12.47-.11,18.68.31,7.2.49,10.75,4.77,9.56,10.8-.59,3.02-2.24,4.53-8.53,7.38,7.06.62,7.7,5.44,8.15,10.25.37,3.94,1.44,7.12,6.45,7.35Zm-24.91-34.22c0,4.97-.07,9.31.07,13.66.02.68,1,1.9,1.52,1.89,2.48-.03,5.06-.05,7.42-.72,3.29-.93,4.57-3.83,4.25-8.26-.25-3.47-1.88-5.54-5.29-6.08-2.44-.39-4.96-.32-7.97-.48Z"/>
      <path class="cls-1" d="m246,21.65c0,8.31.05,15.73-.02,23.15-.03,3.35,1.23,5.43,4.71,5.92.5.07.93.61,2.12,1.45h-15.28c.35-.66.46-1.15.65-1.18,5.01-.82,5.6-4.32,5.49-8.53-.16-6.34-.04-12.69-.04-19.03,0-4.7-.3-5.07-4.85-6.24-.37-.1-.72-.31-1.54-.67.81-.54,1.22-1.04,1.7-1.1,5.76-.66,10.51-.13,13.98,5.94,4.05,7.07,9.47,13.36,14.3,19.98.43.59.92,1.13,1.87,2.27,0-7.93.38-15.21-.26-22.4-.16-1.85-3.53-3.42-5.47-5.16.79-1,10.66-1.34,13.6.14-.05.2-.07.56-.16.58-4.67.97-5.31,4.17-5.19,8.34.25,8.42.11,16.84.03,25.27-.01,1.01-.67,2.02-1.03,3.03-.92-.65-2.08-1.11-2.72-1.97-6.56-8.88-13.04-17.82-19.54-26.74-.62-.84-1.28-1.65-2.34-3.03Z"/>
      <path class="cls-1" d="m516.28,106.17c-1.04-.8-2.32-1.42-3.08-2.44-6.51-8.79-12.92-17.64-19.37-26.47-.62-.84-1.27-1.66-2.62-2.32,0,4.19,0,8.38,0,12.58,0,3.06.04,6.13-.01,9.19-.06,3.49,1.14,5.95,4.94,6.54.5.08.92.62,2.17,1.52h-15.33c.63-.71.94-1.41,1.36-1.49,3.87-.68,4.72-3.32,4.7-6.74-.06-7-.13-14,.03-21,.08-3.43-1.03-5.48-4.61-5.82-.3-.03-.58-.24-.86-.39-.08-.04-.11-.17-.4-.65.59-.28,1.13-.71,1.72-.79,5.65-.81,10,.32,13.31,5.89,4.12,6.92,9.36,13.18,14.13,19.71.56.77,1.2,1.47,2.17,2.66,0-7.81.16-15.06-.15-22.28-.05-1.27-1.97-2.59-3.24-3.64-.73-.61-1.87-.74-2.83-1.08.04-.27.08-.54.11-.8h14.01c.27.27.54.53.81.8-7.64,1.16-6.09,6.58-6.12,11.21-.05,8.39-.01,16.79-.01,25.18-.28.21-.55.42-.83.63Z"/>
      <path class="cls-1" d="m480.68,86.63c-.23,7.75-2.95,14.29-10.47,17.78-11.55,5.37-24.38-2.59-24.92-15.44-.13-3.01.07-6.17.85-9.07,2.37-8.85,9.87-13.67,19.18-12.75,8,.79,14.26,7.42,15.16,16.08.11,1.09.13,2.18.2,3.4Zm-5.44-.29c-1.05-3.72-1.79-8.06-3.52-11.96-1.65-3.74-5.18-5.46-9.42-5.35-4.15.12-7.18,2.15-8.75,5.85-3.27,7.69-3.35,15.55.12,23.18,1.82,4.01,5.28,5.97,9.8,5.83,4.44-.14,7.57-2.43,9.07-6.38,1.26-3.31,1.71-6.93,2.69-11.17Z"/>
      <path class="cls-1" d="m195.5,86.65c.03-13.91,10.99-22.73,23.36-18.8,7.52,2.39,12.23,9.63,12.15,18.7-.07,8.8-4.73,16.32-12.05,18.48-13.34,3.94-23.87-5-23.46-18.38Zm29.8-.49c-.94-3.5-1.63-7.71-3.21-11.55-1.57-3.82-5.02-5.62-9.26-5.57-4.27.05-7.45,2.07-9.08,5.89-3.23,7.58-3.33,15.38.03,22.91,1.88,4.23,5.56,6.33,10.36,6.04,4.6-.27,7.57-2.87,8.94-7.01,1.05-3.16,1.39-6.55,2.22-10.72Z"/>
      <path class="cls-1" d="m371.68,86.57c-.03,9.24-4.58,16.16-12.23,18.57-13.33,4.21-25.32-6.95-23.06-21.45,1.94-12.44,11.74-19.22,22.99-15.92,7.79,2.29,12.33,9.23,12.3,18.8Zm-5.31-.32c-1.06-3.74-1.81-7.96-3.47-11.78-1.65-3.77-5.16-5.49-9.37-5.43-4.17.06-7.24,2.12-8.8,5.78-3.31,7.77-3.44,15.73.19,23.45,1.89,4.02,5.44,5.82,9.92,5.62,4.29-.19,7.37-2.39,8.78-6.27,1.25-3.44,1.77-7.14,2.76-11.36Z"/>
      <path class="cls-1" d="m600.41,86.32c-.26,9.76-4.73,16.49-12.17,18.82-10.96,3.43-21.72-3.52-22.77-15.03-.32-3.51-.07-7.28.88-10.67,2.39-8.55,9.92-13.23,18.83-12.29,8.12.86,14.33,7.49,15.05,16.09.1,1.19.14,2.39.18,3.08Zm-5.39-.28c-1.03-3.61-1.77-7.83-3.45-11.63-1.66-3.75-5.15-5.52-9.38-5.36-4,.15-6.97,2.12-8.51,5.69-3.38,7.78-3.5,15.73.09,23.47,1.86,4.02,5.38,5.91,9.88,5.68,4.42-.23,7.48-2.61,8.86-6.63,1.15-3.36,1.6-6.96,2.52-11.21Z"/>
      <path class="cls-1" d="m344.06,15.81c.79-.15,1.59-.43,2.38-.44,8.42-.03,16.84.03,25.26-.06,2.05-.02,2.7.74,2.62,2.68-.1,2.48-.03,4.97-.03,7.46-.27.12-.55.24-.82.35-.48-.63-1.21-1.19-1.39-1.89-1.21-4.63-4.31-6.38-8.9-6.61-7.86-.4-7.85-.53-7.85,7.27,0,2.39,0,4.78,0,7.3,5.7,1.37,9.6-.04,10.74-6.7.28.28.57.56.85.84v14.44c-.25.08-.5.17-.74.25-.38-.9-.56-1.97-1.18-2.66-1.17-1.3-2.42-2.98-3.95-3.44-4.7-1.4-5.72-.45-5.72,4.44,0,2.95.09,5.91-.03,8.85-.08,2.02.72,2.77,2.69,2.62,1.52-.11,3.06-.01,4.59-.02,6.73-.05,8.81-1.47,11.39-7.69.3-.71.75-1.36,1.9-1.82v11.18h-31.67c-.06-.3-.12-.6-.17-.9.68-.21,1.35-.59,2.03-.6,3.09-.06,4.07-1.57,4-4.6-.17-7.87-.06-15.74-.06-23.61q0-4.58-4.61-5.28c-.41-.06-.8-.21-1.2-.31l-.13-1.05Z"/>
      <path class="cls-1" d="m545.28,87.74h14.69c-5.66,2.21-3.18,6.92-3.37,10.49-.3,5.62-.03,6.05-5.56,6.73-4.67.57-9.71.9-14.19-.24-9.1-2.33-13.41-10.69-12.17-21.54.95-8.37,8.43-15.46,17-16.04,1.74-.12,3.5-.02,5.24.11,2.82.21,5.64.52,8.88.82v9.65c-.21.13-.43.25-.64.38-.59-.72-1.3-1.36-1.74-2.16-2.32-4.22-5.52-7.12-10.64-6.88-5.18.25-8.49,3.33-10.37,7.85-2.82,6.79-2.85,13.65.68,20.23,3.14,5.85,9.23,8.13,15.34,6.14,1.8-.59,2.77-1.43,2.61-3.48-.16-2.07-.19-4.17,0-6.23.26-2.85-.65-4.4-3.74-4.32-.72.02-1.45-.48-2.17-.74l.15-.77Z"/>
      <path class="cls-1" d="m666.66,87.75h14.55c0,.33.05.7,0,.72-3.59,1.01-3.94,3.69-3.56,6.77.04.32,0,.65,0,.98q0,7.85-7.62,9.35c-9.45,1.87-18.53-1.91-22.28-9.28-4.1-8.05-2.38-18.33,4.18-24.38,5.08-4.68,11.16-5.54,17.75-4.44,2.16.36,4.38.37,7.07.58v9.69c-.23.11-.46.21-.69.32-.53-.81-1.11-1.59-1.57-2.44-2.28-4.13-5.53-6.78-10.47-6.56-4.89.21-8.14,3.02-10.08,7.25-3.02,6.59-3.09,13.35-.08,19.95,2.99,6.54,9.54,9.32,16.05,6.83,1.06-.41,2.09-2,2.32-3.21.38-2-.04-4.15.14-6.21.25-2.79-.56-4.44-3.66-4.42-.73,0-1.46-.47-2.19-.73.04-.26.09-.52.13-.79Z"/>
      <path class="cls-1" d="m419.19,52.68v-10.88c.27-.18.55-.36.82-.55.74.94,1.57,1.81,2.19,2.82,2.56,4.18,5.5,7.69,11.07,7.27,3.33-.25,6.04-2.38,6.68-5.33.76-3.49-.25-5.76-3.78-7.46-2.84-1.37-5.85-2.38-8.8-3.53-5.87-2.3-7.99-5.25-7.47-10.43.52-5.09,4.13-9.04,9.47-9.83,2.34-.35,4.78.03,7.18.06,1.79.02,3.58,0,5.72,0v10.84c-.99-1.16-1.55-1.85-2.16-2.5-1.89-2.02-3.47-4.57-5.76-5.91-3.45-2.01-7.6-.23-9.08,3.15-1.59,3.63-.35,6.66,3.7,8.46,2.78,1.24,5.72,2.11,8.56,3.25,5.25,2.1,7.45,5.51,6.9,10.53-.61,5.55-4.12,9.66-9.28,10.45-2.13.33-4.35.18-6.52.11-2.95-.09-5.9-.32-9.44-.53Z"/>
      <path class="cls-1" d="m269.8,158.59v-11.73l.86-.34c.77,1.18,1.58,2.33,2.31,3.54,3.11,5.18,7.19,7.38,11.78,6.35,3.24-.73,5.16-2.77,5.75-5.97.59-3.18-1.11-5.28-3.78-6.55-2.66-1.26-5.43-2.28-8.19-3.3-6.81-2.52-9.06-5.64-8.16-11.48.87-5.61,5.21-9.17,11.62-9.43,1.3-.05,2.6.16,3.91.25,2.13.13,4.26.25,6.69.4v9.56l-.69.35c-.64-.96-1.33-1.9-1.9-2.9-2.6-4.54-6.46-6.45-10.5-5.2-2.72.84-4.11,2.77-4.45,5.49-.33,2.67.66,4.79,3.16,5.89,3.09,1.35,6.28,2.47,9.4,3.73,5.68,2.29,7.66,5.86,6.63,11.84-1,5.83-4.66,9.19-10.49,9.25-2.92.03-5.85-.61-8.77-.66-1.64-.02-3.3.55-5.19.91Z"/>
      <path class="cls-1" d="m210.94,16.34q-5.66,2.37-5.66,8.84c0,5.36-.04,10.72.02,16.08.07,6.19,3.44,9.52,9.85,9.87,5.44.29,10.23-3.53,10.53-9.05.35-6.43.16-12.9.09-19.35-.03-2.85-1.54-4.68-4.4-5.32-.68-.15-1.33-.48-2.11-.78,1.92-1.6,11.56-1.79,14.24-.45-.05.2-.06.56-.15.58-4.64.95-5.48,4.12-5.28,8.3.24,5.02.11,10.06.04,15.09-.08,6.45-2.61,10.32-7.89,12.28-6.05,2.25-14.53.97-17.7-3.28-1.52-2.04-2.45-4.93-2.6-7.49-.36-6.32-.3-12.69-.05-19.02.14-3.47-.7-5.5-4.49-5.47-.36,0-.71-.29-1.14-.48,1.6-1.66,13.47-1.93,16.69-.35Z"/>
      <path class="cls-1" d="m245.1,87.12c0,4.89-.21,9.15.16,13.35.09.99,2.08,1.93,3.34,2.64.84.47,1.93.5,2.91.72-.06.32-.11.63-.17.95h-18.29c1.24-.81,1.83-1.53,2.44-1.53,3.41-.03,4.36-1.69,4.27-4.97-.22-7.86-.22-15.74,0-23.6.09-3.3-.88-4.98-4.3-4.95-.55,0-1.1-.35-1.81-.58,1.76-1.47,20.72-2.03,30.14-1.01v10.39c-.28.07-.56.13-.83.2-.36-.69-.83-1.35-1.06-2.08-1.52-4.68-4.78-6.83-9.63-6.76-8.72.14-7-1.16-7.19,6.92-.06,2.61,0,5.21,0,7.74,5.73,1.59,7.03.92,10.91-5.45,1.46,1.74,1.7,11.55.25,14.62-1.3-2-2.15-4.53-3.89-5.61-1.73-1.07-4.37-.67-7.25-.98Z"/>
      <path class="cls-1" d="m252.91,121.03h14.16c-.18.59-.21.95-.31.97-5.29,1.1-5.47,5.07-5.38,9.32.1,5.03.04,10.06.02,15.08-.02,5.65-2.73,10.11-8.12,11.19-4.03.81-8.53.72-12.55-.17-5.03-1.11-7.37-5.05-7.41-10.29-.05-6.45-.15-12.9.04-19.35.1-3.2-.39-5.41-4.22-5.32-.52.01-1.04-.5-1.46-1.41h16.35c.06.19.12.38.18.57-.57.28-1.14.82-1.71.81-3.32-.04-3.79,1.81-3.71,4.65.18,6.44.04,12.9.06,19.35.02,6.12,3.32,9.56,9.37,9.84,5.86.27,10.66-3.41,10.92-8.95.31-6.54.15-13.11.06-19.67-.03-2.4-1.32-4.1-3.74-4.8-.94-.27-1.84-.64-2.76-.97.07-.29.13-.58.2-.87Z"/>
      <path class="cls-1" d="m204,157.58h-11.45c-.04-.46-.14-.82-.07-.85,4.38-2.24,5.82-6.5,7.47-10.66,3.1-7.82,6.24-15.63,9.49-23.39.41-.99,1.61-1.65,2.44-2.46.7.82,1.71,1.53,2.06,2.48,3.32,8.89,6.67,17.77,9.7,26.76,1.24,3.69,3.11,6.35,7.41,6.97-.16.31-.32.62-.48.93h-16.45c.24-.46.31-.88.51-.95,5.13-1.88,5.2-1.89,3.2-7.33-2.37-6.47-.73-5.17-7.38-5.25-7.49-.09-7.44,0-9.84,7.11-.9,2.66-.66,4.49,2.51,5.06.41.07.75.59,1.12.9l-.25.68Zm.24-15.84h10.99c-1.68-4.93-3.27-9.58-4.86-14.24-.24.03-.48.06-.73.09-1.77,4.63-3.53,9.25-5.4,14.15Z"/>
      <path class="cls-1" d="m508.02,157.42h-16.22c.1-.5.09-.66.15-.7,1.53-.99,4.45-2.14,4.36-2.93-.39-3.18-1.67-6.26-2.72-9.34-.11-.33-.9-.61-1.37-.62-3.28-.05-6.56-.07-9.83.01-.54.01-1.38.44-1.56.88-1.07,2.62-2.19,5.25-2.83,7.99-.19.8.98,2.07,1.76,2.9.51.54,1.45.68,2.08,1.75h-11.83c-.02-.3-.11-.66-.04-.7,4.67-2.24,6.18-6.71,7.89-11.07,3.11-7.92,6.23-15.83,9.45-23.71.29-.71,1.31-1.61,1.93-1.57.68.04,1.63.95,1.91,1.68,2.66,7.04,5.01,14.19,7.83,21.16,2.1,5.18,1.91,12.02,9.72,13.47l-.67.77Zm-20.41-30.6c-2.07,5.45-3.82,10.05-5.67,14.92h10.78c-1.67-4.86-3.24-9.46-5.11-14.92Z"/>
      <path class="cls-1" d="m412.05,157.46h-16.66c.14-.57.14-.9.25-.95,5.31-2.02,5.34-2.02,3.36-7.56-2.27-6.32-.76-5.12-7.47-5.12-3.18,0-6.85-1.44-8.34,3.7-1.78,6.14-2.19,6.02,3.09,9.84h-12.67c.13-.42.15-1.06.37-1.15,3.97-1.45,5.3-4.96,6.67-8.44,3.32-8.43,6.61-16.89,10.02-25.28.37-.92,1.48-1.54,2.24-2.31.74.79,1.83,1.45,2.17,2.38,3.28,8.8,6.46,17.63,9.6,26.48,1.16,3.28,2.34,6.43,6.41,7.07.27.04.45.6.95,1.33Zm-20.46-29.87c-.25,0-.5.02-.75.03-1.66,4.6-3.33,9.19-5.06,13.98h10.64c-1.7-4.94-3.27-9.47-4.83-14.01Z"/>
      <path class="cls-1" d="m323.33,46.63c3.19-8.46,6.1-15.98,8.85-23.55,1.42-3.92.9-4.73-3.03-5.87-.48-.14-.94-.32-1.51-.52,1.68-1.64,10.57-1.9,13.55-.52-8.78,5.46-8.65,15.72-12.77,23.68-1.89,3.66-3,7.71-4.62,11.52-.35.83-1.36,1.39-2.06,2.07-.68-.72-1.67-1.33-2-2.19-3.29-8.67-6.52-17.37-9.65-26.1-1.38-3.86-2.39-7.9-7.77-8.14,1.81-2,14.18-2.28,16.7-.76-.06.2-.08.52-.2.57q-5.34,1.95-3.39,7.44c2.54,7.18,5.07,14.36,7.9,22.38Z"/>
      <path class="cls-1" d="m479.09,51.41c.12-.17.22-.45.37-.49q5.79-1.49,5.79-7.55c0-7.76-.07-15.53.04-23.29.03-2.2-.73-2.87-2.85-2.76-3.76.2-6.04,2.09-7.25,5.57-.52,1.48-1.26,2.89-1.9,4.33l-1.13-.34c0-3.32-.09-6.64.09-9.94.03-.55,1.24-1.49,1.91-1.5,9.08-.1,18.16-.11,27.24.01.72,0,2,1.1,2.05,1.75.21,3.2.1,6.43.1,9.65-.29.1-.58.21-.87.31-1.24-2.47-2.18-5.16-3.79-7.36-1.94-2.65-4.97-2.72-8.4-2.12,0,4.97,0,9.86,0,14.74,0,4.48.2,8.98-.06,13.45-.2,3.41,1.08,4.89,4.42,4.82.55-.01,1.1.33,1.62,1.05-5.82,1.08-11.6.69-17.39.8,0-.37.02-.75.03-1.12Z"/>
      <path class="cls-1" d="m526.9,34.06c2.69-4.68,5.28-8.81,7.5-13.14,1.83-3.58-2.07-3.1-4.36-4.93,5.01-1.16,9.27-.43,13.51-.59,0,.77.04.96,0,.98-8.12,3.95-10.7,12.34-14.55,19.36-1.9,3.45-.68,8.67-.61,13.08,0,.59,1.55,1.31,2.49,1.68.9.36,1.95.34,2.94.48-.03.33-.05.67-.08,1h-16.77c-.11-.26-.22-.53-.33-.79.3-.13.58-.3.89-.38,5.22-1.28,4.96-1.3,5.29-6.68.31-4.92-.79-9.2-3.62-13.2-1.57-2.22-2.79-4.69-4.12-7.07-1.75-3.14-3.21-6.54-7.66-6.97,1.85-1.82,12.88-2.13,15.98-.78-.03.21,0,.57-.09.6q-5.17,1.9-2.3,6.93c1.88,3.3,3.74,6.61,5.9,10.43Z"/>
      <path class="cls-1" d="m330.01,132.19c-1.3-2.51-2.3-5.23-3.96-7.46-1.93-2.59-5-2.13-8.25-1.88,0,4.32,0,8.56,0,12.79,0,5.14.15,10.29-.05,15.42-.12,3.11.78,4.82,4.11,4.81.81,0,1.63.4,2.44.61-.06.29-.12.59-.17.88h-17.85c-.03-.23-.07-.46-.1-.69.52-.26,1.02-.65,1.57-.75,4.75-.86,4.75-.85,4.75-5.77,0-7.88,0-15.75,0-23.63v-3.4c-8.26-2.25-9.55,4.29-11.97,9.33-.26-.14-.53-.27-.79-.41v-11.16h31.11v10.97c-.28.11-.55.22-.83.33Z"/>
      <path class="cls-1" d="m410.37,103.82c.7-.21,1.39-.59,2.09-.61,3.06-.12,4.01-1.63,3.94-4.64-.18-7.86-.06-15.72-.06-23.59q0-4.54-4.62-5.26c-.39-.06-.76-.28-1.19-.45,1.54-1.87,14.72-2.07,16.88-.36-.09.18-.15.5-.28.53-6.55,1.27-5.43.9-5.49,7.21-.07,7.86.05,15.73-.06,23.59-.03,2.14.65,3.02,2.8,2.82,1.73-.16,3.48-.2,5.22-.25,4.59-.11,7.13-2.69,8.48-6.85.39-1.19,1.06-2.3,1.6-3.44.27.1.54.2.81.3v12.06h-29.9c-.08-.35-.15-.7-.23-1.05Z"/>
      <path class="cls-1" d="m375.55,68.3h16.54c-.18.65-.19,1-.29,1.03q-5.3,1.65-5.3,7.48c0,7.43,0,14.85,0,22.28,0,1.18,0,2.35,0,4.4,4.28-.6,8.64-.18,11.74-1.95,2.9-1.65,4.46-5.64,6.87-8.97v12.33h-29.45c-.09-.26-.19-.52-.28-.79.75-.32,1.48-.86,2.26-.93,2.66-.27,3.75-1.54,3.71-4.29-.12-7.86-.04-15.72-.04-23.59q0-4.8-4.73-5.6c-.37-.06-.71-.31-1.06-.48.02-.31.03-.63.05-.94Z"/>
      <path class="cls-1" d="m432.25,121.02c-1.07.89-1.28,1.18-1.55,1.27q-4.94,1.6-4.94,6.76c0,7.55,0,15.1,0,22.65,0,1.17,0,2.35,0,4.36,4.32-.52,8.7,0,11.81-1.73,2.93-1.63,4.53-5.66,6.94-8.94,1.41,3.84,0,7.9.11,12.13h-30l-.23-.87c.96-.3,1.91-.79,2.89-.87,2.13-.15,3.09-.99,3.06-3.28-.09-8.86-.08-17.72,0-26.59.02-2.01-.63-3.07-2.71-3.25-1.07-.09-2.11-.49-3.17-.75l.15-.91h17.64Z"/>
      <path class="cls-1" d="m449.87,15.77h16.89c.05.21.09.41.14.62-.38.26-.74.68-1.15.76-4.74.92-4.74.91-4.74,5.51,0,7.66.14,15.32-.07,22.97-.09,3.43.88,5.25,4.52,5.09.44-.02.91.32,1.51.56-1.95,1.5-13.44,1.81-17.69.43.97-.49,1.5-1,2.03-.99,3.62.06,4.55-1.76,4.45-5.18-.23-7.76-.24-15.53,0-23.29.11-3.33-.94-4.93-4.27-5.05-.6-.02-1.19-.41-1.78-.63.05-.27.1-.53.15-.8Z"/>
      <path class="cls-1" d="m298.37,52.14h-16.63c-.05-.22-.1-.43-.15-.65.47-.27.95-.79,1.42-.77,3.87.12,4.66-1.99,4.57-5.43-.2-7.52-.06-15.06-.06-22.59q0-4.71-4.74-5.52c-.38-.07-.73-.28-1.16-.45,1.53-1.77,14.32-1.98,16.76-.42-.08.19-.12.52-.24.55q-5.49,1.43-5.49,7.2c0,7.2.16,14.41-.07,21.61-.11,3.42.84,5.22,4.48,5.04.45-.02.91.32,1.37.5-.02.31-.05.62-.07.93Z"/>
      <path class="cls-1" d="m448.64,121.01h16.71c.05.22.11.43.16.65-.59.3-1.18.86-1.76.86-3.64-.03-4.17,2.03-4.1,5.14.17,7.76.19,15.53,0,23.29-.09,3.26.8,5.04,4.28,4.98.53,0,1.08.43,1.58,1.09-5.59,1.29-11.2.66-16.79.74-.1-.28-.2-.56-.31-.83.65-.35,1.3-.99,1.95-.99,3.31-.03,4.17-1.7,4.09-4.82-.19-7.87-.22-15.75.01-23.61.1-3.3-.81-4.99-4.24-4.97-.56,0-1.13-.38-1.69-.59.04-.31.08-.62.11-.93Z"/>
      <path class="cls-1" d="m166.83,77.28c0,16.62-.36,33.26.08,49.87.64,24.21-9.48,43.13-27.73,58.07-15.99,13.09-34.11,22.78-52.81,31.41-.93.43-2.4.47-3.33.05-19.75-8.98-38.82-19.19-55.37-33.39-16.8-14.43-25.77-32.58-25.6-55.16.27-35.87.11-71.75,0-107.62,0-2.88.94-4.21,3.54-5.28C21.28,8.76,37.61,5.14,54.4,3.34c18.33-1.97,36.69-1.99,55.02-.52,18.79,1.51,37.16,5.14,54.59,12.72,2.12.92,2.87,1.99,2.86,4.32-.1,19.14-.06,38.28-.06,57.42Zm-2.99-.51c0-18.05-.08-36.1.08-54.15.03-2.98-.84-4.38-3.64-5.5-20.79-8.28-42.55-11.62-64.7-12.04-14.5-.28-29.06.57-43.53,1.71-15.07,1.19-29.67,4.93-43.76,10.54-2.26.9-3.02,2.07-3.01,4.55.09,35.66.29,71.33-.02,106.99-.19,20.83,8.02,37.61,23.2,51.14,16.14,14.39,35.08,24.42,54.6,33.39,1.06.49,2.79.25,3.92-.28,15.97-7.44,31.38-15.9,45.59-26.38,20.43-15.07,32.25-34.48,31.39-60.75-.54-16.39-.1-32.82-.1-49.23Z"/>
      <path class="cls-2" d="m163.84,76.77c0,16.41-.44,32.84.1,49.23.87,26.27-10.96,45.68-31.39,60.75-14.21,10.48-29.61,18.94-45.59,26.38-1.13.53-2.86.77-3.92.28-19.51-8.97-38.45-19-54.6-33.39-15.19-13.54-23.39-30.31-23.2-51.14.32-35.66.12-71.33.02-106.99,0-2.48.76-3.65,3.01-4.55,14.09-5.61,28.69-9.35,43.76-10.54,14.47-1.15,29.03-1.99,43.53-1.71,22.15.42,43.91,3.76,64.7,12.04,2.8,1.12,3.67,2.52,3.64,5.5-.15,18.05-.08,36.1-.08,54.15Zm-154.05,2.48c0,16.63.19,33.26-.05,49.89-.26,17.43,6.06,32.13,18.33,44.12,15.84,15.48,35.04,25.96,54.97,35.16.99.46,2.61.3,3.64-.19,16.24-7.69,31.95-16.29,46.12-27.43,17.23-13.54,26.91-30.8,26.74-53.27-.26-34.13-.09-68.27-.02-102.4,0-2.39-.53-3.71-2.92-4.61-17.04-6.38-34.75-9.32-52.8-10.58-15.41-1.08-30.82-.9-46.19.65-15.37,1.56-30.43,4.47-44.97,9.87-2.22.83-2.92,1.96-2.9,4.3.1,18.16.05,36.32.05,54.48Z"/>
      <path class="cls-1" d="m9.78,79.25c0-18.16.04-36.32-.05-54.48-.01-2.34.68-3.47,2.9-4.3,14.53-5.41,29.6-8.32,44.97-9.87,15.38-1.56,30.78-1.74,46.19-.65,18.05,1.27,35.76,4.21,52.8,10.58,2.4.9,2.93,2.22,2.92,4.61-.08,34.13-.24,68.27.02,102.4.17,22.47-9.51,39.73-26.74,53.27-14.17,11.13-29.89,19.74-46.12,27.43-1.03.49-2.65.64-3.64.19-19.93-9.21-39.12-19.68-54.97-35.16-12.27-11.99-18.58-26.69-18.33-44.12.24-16.63.05-33.26.05-49.89Zm146.46,21.7c0-10.94-.07-21.88.05-32.82.03-2.32-.65-3.2-2.97-3.61-8.32-1.49-16.37-.37-24.23,2.32-9,3.08-17.88,3.36-26.99.22-10.98-3.79-22.16-3.79-33.24-.29-10.13,3.21-20.1,3.39-30.28.05-7.45-2.45-15.19-2.98-23.03-1.93-2.35.31-3.01,1.19-3,3.54.1,19.58.21,39.17,0,58.75-.18,17.83,5.73,33.07,18.77,45.23,15.19,14.16,33.13,24.14,51.82,32.86.9.42,2.41.22,3.36-.24,17.16-8.3,33.96-17.28,48.39-29.89,13.51-11.8,21.59-26.46,21.34-44.98-.13-9.74-.02-19.47-.02-29.21ZM98.52,20.11c-6.8.48-12.99,1.58-13.31,11.19-3.33-11.05-6.19-10.04-14.34-11.1-1.05,5.08.03,9.58,4.71,13.56-7.75-1.2-8.34-1.02-14.6,4.18,2.21,2.34,4.04,5.38,6.73,6.8,2.68,1.41,6.22,1.17,9.55,1.68-2.68,7.31,4.06,9.53,7.49,13.77q7.9-8.17,7.96-14.77c8.05,3.17,11.55-2.7,15.57-7.76-4.02-2.72-7.54-6.75-13.53-3.99,3.72-4.08,4.76-8.52,3.75-13.56Zm-46.17,35.81c-1.22-5.24-.35-10.95-6.93-12.95,6.73-5.17,6.58-10.02,4.12-16.43-4.1,2.12-9.48,2.69-9.97,9.41-.15-6.37-4.32-8.35-9.37-10.06-.44,2.25-1.24,4.45-1.19,6.64.05,2.1.98,4.18,1.54,6.32-5.27-1.59-7.93-.68-11.59,3.91,3.04,3.98,6.58,6.69,12.3,4.61-4.22,2.9-4.4,6.99-4.71,11.51,2.93-.31,5.92.06,8.17-1.06,2.11-1.06,3.44-3.68,5.19-5.71,2.96,4.31,7.93,2.73,12.44,3.82Zm77.2-20.08c-.26-6.64-5.5-7.32-9.84-9.26-2.33,6.42-2.16,12.01,4.45,16.35-6.71,2.25-5.78,7.89-7.18,13.15,4.73-1.35,9.82.4,13.03-4.63,2.66,7.53,4.67,7.26,12.92,6.96-.49-4.03-.49-8.18-4.65-10.94,5.9,1.86,9.41-.91,12.42-5.06-3.59-3.05-6.89-6.32-12.31-3.44,3.47-4.57,2.01-8.77.54-13.03q-6.54,2.77-9.38,9.9Zm-60.43,23.72c.21-.15.42-.3.62-.44-1.48-1.78-2.71-3.87-4.49-5.26-4.13-3.24-8.22-6.31-10.38-11.43-1.07-2.54-3.08-2.49-4.09-.64,1.57,3.91,2.92,7.25,3.91,9.71,5.1,2.85,9.76,5.46,14.43,8.07Zm49.5-17.56c-1.6-1.95-3.02-2.18-4.19.64-2.06,4.97-6.01,7.82-9.96,10.92-1.88,1.48-3.18,3.71-4.74,5.61.19.11.38.23.58.34,4.76-2.62,9.52-5.24,14.27-7.86,1.19-2.86,2.55-6.09,4.04-9.66Z"/>
      <path class="cls-2" d="m156.24,100.95c0,9.74-.11,19.48.02,29.21.25,18.51-7.83,33.17-21.34,44.98-14.43,12.61-31.24,21.59-48.39,29.89-.96.46-2.46.66-3.36.24-18.68-8.72-36.62-18.7-51.82-32.86-13.05-12.16-18.96-27.4-18.77-45.23.2-19.58.09-39.17,0-58.75-.01-2.35.65-3.23,3-3.54,7.84-1.05,15.58-.52,23.03,1.93,10.17,3.34,20.15,3.16,30.28-.05,11.07-3.51,22.25-3.5,33.24.29,9.1,3.14,17.98,2.86,26.99-.22,7.86-2.69,15.91-3.81,24.23-2.32,2.32.41,3,1.29,2.97,3.61-.12,10.94-.05,21.88-.05,32.82Zm-73.84,24.53c1.25-4.69-3.02-5.14-6.15-7.59,2.7.64,4.42,1.05,6.27,1.5.79-5.37-4.12-5.35-7.03-7.87,2.64.61,4.79,1.12,7,1.63.94-4.79-3.27-5.19-6.26-7.7,2.59.68,4.33,1.13,6.26,1.64.96-5.17-3.78-5.49-7.09-8.2,2.94.87,4.97,1.47,6.99,2.06,1.43-4.74-3.11-5.19-5.74-7.95,2.43.75,4.05,1.25,5.69,1.76q.45-3.68-5.99-8.03c2.02.63,4.03,1.25,6.02,1.87.95-2.57-.2-4.04-2.26-5.15-3.41-1.83-6.99-2.22-10.79-1.61-7.88,1.26-15.53,4.74-24.08,2.24,0,1.51,0,2.69,0,3.88,0,16.4,0,32.8,0,49.2,0,8.36,1.1,9.35,9.57,8.47,1.63-.17,3.29-.34,4.84-.8,7.58-2.24,15.13-4.35,22.7.02,1.49-5.68-2.95-6.26-5.9-8.33,1.96.4,3.93.81,5.93,1.22,1.47-4.67-3-4.82-5.53-7.24,2.26.45,3.89.78,5.66,1.13.79-5.2-3.81-5.26-6.87-7.67,2.63.59,4.61,1.04,6.75,1.52Zm42.5-40.52c-4.39-.24-8.4-.29-12.36-.73-2.8-.31-5.55-1.16-8.32-1.78-4.66-1.04-9.26-1.5-13.76.78-2.25,1.14-3.37,2.5-3.34,5.29.15,17.72.07,35.44.07,53.16v3.75c7.45-4.65,14.57-2.97,21.89-1.08,3.93,1.02,8.18.83,12.3,1.02,2.96.13,3.75-1.5,3.73-4.38-.13-17.83-.06-35.66-.07-53.48,0-1.06-.11-2.11-.13-2.55Zm7.76,7.68c.36-.06.72-.12,1.07-.18.3,1.42.87,2.85.87,4.27.06,18.27.04,36.53.03,54.8,0,1.05-.12,2.1-.2,3.39-1.47,0-2.65,0-3.84,0-10.94,0-21.88-.1-32.82.08-2.14.04-4.46.83-6.36,1.88-3.83,2.12-9.98,2.03-13.76-.22-1.68-1-3.83-1.64-5.77-1.67-10.72-.16-21.44-.08-32.16-.08-1.16,0-2.32,0-3.3,0-.25-.71-.38-.91-.38-1.12-.13-19.46-.26-38.92-.32-58.38,0-.95.67-1.9,1.02-2.85.26.08.52.16.78.24v58.26c.35.07.69.13,1.04.2.27-1.3.78-2.6.78-3.9.05-18.27.04-36.53.03-54.8,0-.96-.1-1.91-.17-3h-5.52v68.29c1.53,0,2.82,0,4.11,0,11.05,0,22.1-.1,33.15.09,2.15.04,4.46.86,6.38,1.9,4.97,2.68,9.7,2.63,14.69.04,2.03-1.05,4.44-1.9,6.69-1.94,11.48-.19,22.97-.08,34.46-.1,1.26,0,2.52-.13,3.8-.19v-68.11h-5.64c-.15.51-.32.82-.32,1.13-.03,19.25-.05,38.5-.01,57.75,0,.93.58,1.85.88,2.78.26-.05.52-.11.78-.16v-58.41Zm-89.98-7.07c-1.54,2.2-2.18,54.75-.97,60.9,1.61-1.83,2.5-53.1.97-60.9Zm-20.36,30.24c-1.61,1.87-3.54,3.12-3.5,4.31.04,1.3,1.91,2.53,3.54,4.46.21.39.74,2.49,1.61,2.65,1.18.22,2.83-.84,3.92-1.77,1.14-.99,1.84-2.47,2.74-3.74.7-1.78,1.9-4.55-2.19-4.22-.21-2.62-.85-4.96-3.89-4.7-2.35.2-2.54,1.99-2.23,3.01Zm8.97,24.19c-1.25-1.04-2.67-1.64-2.94-2.56-.62-2.17-1.63-3.98-3.92-3.26-1.18.37-1.82,2.43-2.22,3.02-1.57,1.74-3.59,3.09-3.4,3.95.35,1.58,2,2.87,3.49,4.75-.37,1.06.1,2.82,2.32,2.97,2.97.19,3.62-2.2,3.83-4.77,4,.16,2.94-2.47,2.84-4.09Zm-9.61-44.65c-.87,1.01-2.84,2.29-2.86,3.6-.02,1.28,1.96,2.58,3.26,4.1.53.87,1.17,2.97,2.02,3.06,1.22.13,2.79-1,3.85-1.98,1.11-1.02,1.79-2.5,2.65-3.78.21.12.41.24.62.36v-3.82c-.25.14-.51.28-.76.42-.77-.99-1.43-2.08-2.33-2.93-1.14-1.08-2.48-1.95-3.73-2.91-.85,1.2-1.69,2.39-2.73,3.86Zm105.93-9.76c-1.29,9.85-.53,58.86.9,60.62,1.21-5.21.61-58.41-.9-60.62Zm17.71,14.09c-1.15,1.38-1.96,2.02-2.3,2.86-.3.73-.31,2.29-.02,2.4,1.14.46,2.45.64,3.69.6.5-.02,1.37-.86,1.39-1.36.12-3.55.06-7.11.06-10.7h-5.15c-.2,1.06-.38,1.99-.57,2.99-1.56.44-4.39-.33-2.89,3.2h5.8Zm2.86,49.09c0-3.21,0-5.79,0-8.37,0-4.82-.06-4.87-5.13-3.96-.26.96-.54,1.96-.82,2.97-.22-.19-.43-.38-.65-.57-.95.88-1.9,1.77-2.84,2.65.22.29.44.59.66.88,1.77.1,3.55.2,4.85.28-.5,1.78-.95,3.4-1.4,5.02,1.59.33,3.17.65,5.32,1.09Zm-9.19-30.4c.47,4.77,4.42,1.32,5.71,2.81-.8,1.77-1.56,3.44-2.47,5.46h5.73v-11.61h-5.02c-.2,1.13-.36,2.05-.54,3.08-1.11.08-2.05.15-3.41.25Z"/>
      <path class="cls-2" d="m98.52,20.11c1.01,5.04-.03,9.48-3.75,13.56,5.99-2.77,9.51,1.26,13.53,3.99-4.02,5.06-7.52,10.93-15.57,7.76q-.06,6.6-7.96,14.77c-3.43-4.24-10.17-6.46-7.49-13.77-3.34-.51-6.88-.27-9.55-1.68-2.69-1.41-4.52-4.46-6.73-6.8,6.26-5.2,6.84-5.38,14.6-4.18-4.68-3.98-5.76-8.48-4.71-13.56,8.15,1.06,11.01.04,14.34,11.1.32-9.6,6.52-10.71,13.31-11.19Zm-13.86,13.7c-1.6,1.92-3.32,3.04-3.46,4.34-.25,2.24,1.9,3.37,3.75,2.98,1.37-.29,2.45-1.95,3.66-3.01-1.12-1.22-2.24-2.45-3.95-4.32Zm-5.31,10.1c1.18,2.38,3.34,3.4,6.12,3.28,2.71-.12,4.3-1.5,4.73-3.28h-10.85Zm15.12-20.7c-4.84.83-6.46,2.78-5.52,7.58,1.75-2.41,3.51-4.81,5.52-7.58Zm-19.42-.03c2.07,2.74,3.85,5.11,5.63,7.47.78-4.68-.88-6.64-5.63-7.47Zm30.36,14.82c-3.16-1.33-5.42-4.02-9.33-1.95,3.04,1.97,5.58,3.36,9.33,1.95Zm-32.15-1.89c-3.83-2.18-6.05.53-9.17,1.9,3.77,1.42,6.29-.05,9.17-1.9Z"/>
      <path class="cls-2" d="m52.35,55.93c-4.5-1.08-9.47.49-12.44-3.82-1.75,2.02-3.08,4.65-5.19,5.71-2.25,1.12-5.24.75-8.17,1.06.31-4.51.48-8.61,4.71-11.51-5.73,2.08-9.27-.63-12.3-4.61,3.65-4.59,6.32-5.5,11.59-3.91-.56-2.14-1.49-4.22-1.54-6.32-.05-2.18.75-4.39,1.19-6.64,5.05,1.72,9.22,3.69,9.37,10.06.49-6.73,5.87-7.29,9.97-9.41,2.46,6.41,2.61,11.27-4.12,16.43,6.58,2,5.71,7.72,6.93,12.95Zm-16.3-9.4c2.93,0,6.18-2.91,5.74-4.78-.19-.81-1.52-1.83-2.41-1.92-2.11-.2-5.04,2.62-4.77,4.5.13.91,1.11,1.71,1.44,2.19Zm11.86-16.88c-3.75.54-5.08,2.91-5.74,5.77.31.23.61.47.92.7,1.61-2.16,3.21-4.32,4.82-6.47Zm-14.07,20c-.44-.35-.89-.7-1.33-1.04-1.59,2.06-3.19,4.12-4.78,6.17.38.29.77.59,1.15.88,1.65-2,3.31-4.01,4.96-6.01Zm4.23-.54c4.46.39,6.3-1.21,6.15-5.07-1.91,1.57-3.95,3.25-6.15,5.07Zm-16.38-8.02c.16.52.32,1.04.48,1.56,2.12-.66,4.23-1.33,6.35-1.99-.17-.51-.34-1.03-.5-1.54l-6.32,1.97Zm10.76-3.89c.51-.22,1.03-.43,1.54-.65-.91-2.09-1.81-4.17-2.72-6.26-.48.2-.96.41-1.45.61.87,2.1,1.75,4.2,2.62,6.3Z"/>
      <path class="cls-2" d="m129.55,35.84q2.84-7.13,9.38-9.9c1.47,4.27,2.93,8.46-.54,13.03,5.42-2.88,8.72.4,12.31,3.44-3.01,4.15-6.52,6.92-12.42,5.06,4.15,2.76,4.16,6.92,4.65,10.94-8.24.3-10.26.56-12.92-6.96-3.21,5.03-8.29,3.29-13.03,4.63,1.4-5.26.47-10.9,7.18-13.15-6.61-4.34-6.78-9.93-4.45-16.35,4.34,1.94,9.59,2.61,9.84,9.26Zm-.39,3.9c-.35.46-1.4,1.23-1.54,2.13-.28,1.91,3.09,4.95,5.1,4.55.83-.17,1.93-1.39,2.03-2.25.25-1.96-2.7-4.46-5.6-4.44Zm-6.43-11.01c-.24.2-.48.4-.73.6,1.17,3.64,3.01,5.77,6.34,6.14-2.22-2.67-3.92-4.71-5.61-6.75Zm2.33,15.13c.2,4.21,2.07,5.77,6.25,5.11-2.09-1.71-4.2-3.43-6.25-5.11Zm11.81,4.68c-.44.35-.88.7-1.31,1.04,1.66,2.01,3.32,4.03,4.98,6.04l1.17-.93c-1.61-2.05-3.23-4.11-4.84-6.16Zm-1.46-12.03c.32.11.64.23.96.34,2.89-2.48,3.26-3.61,1.88-6.88-1.05,2.41-1.94,4.47-2.84,6.54Zm5.52,4.26c2.14.59,4.27,1.17,6.41,1.76-1.49-2.98-3.6-3.7-6.41-1.76Z"/>
      <path class="cls-2" d="m69.11,59.57c-4.66-2.61-9.32-5.22-14.43-8.07-.99-2.46-2.33-5.8-3.91-9.71,1.01-1.85,3.02-1.89,4.09.64,2.16,5.12,6.25,8.19,10.38,11.43,1.78,1.39,3.01,3.49,4.49,5.26-.21.15-.42.3-.62.44Z"/>
      <path class="cls-2" d="m118.62,42.01c-1.49,3.57-2.85,6.8-4.04,9.66-4.75,2.62-9.51,5.24-14.27,7.86-.19-.11-.38-.23-.58-.34,1.56-1.89,2.85-4.13,4.74-5.61,3.96-3.11,7.9-5.95,9.96-10.92,1.17-2.83,2.59-2.59,4.19-.64Z"/>
      <path class="cls-1" d="m82.4,125.48c-2.14-.48-4.12-.93-6.75-1.52,3.06,2.41,7.65,2.48,6.87,7.67-1.77-.35-3.4-.68-5.66-1.13,2.53,2.42,7,2.56,5.53,7.24-2-.41-3.97-.81-5.93-1.22,2.94,2.07,7.39,2.65,5.9,8.33-7.58-4.36-15.13-2.26-22.7-.02-1.56.46-3.22.63-4.84.8-8.47.88-9.57-.11-9.57-8.47,0-16.4,0-32.8,0-49.2,0-1.18,0-2.37,0-3.88,8.55,2.5,16.2-.98,24.08-2.24,3.8-.61,7.38-.22,10.79,1.61,2.06,1.11,3.21,2.58,2.26,5.15-1.99-.62-4-1.24-6.02-1.87q6.45,4.35,5.99,8.03c-1.65-.51-3.26-1.01-5.69-1.76,2.63,2.76,7.17,3.22,5.74,7.95-2.02-.6-4.05-1.2-6.99-2.06,3.31,2.71,8.05,3.03,7.09,8.2-1.93-.5-3.67-.96-6.26-1.64,2.99,2.51,7.2,2.9,6.26,7.7-2.22-.52-4.37-1.02-7-1.63,2.92,2.52,7.82,2.5,7.03,7.87-1.85-.44-3.57-.85-6.27-1.5,3.13,2.45,7.39,2.9,6.15,7.59Zm-23.88,1.71h-10.8c4.03,2.36,7.32,1.6,10.8,0Zm-9.82-37.45c3.33,2.24,6.5,1.62,10.42,0h-10.42Zm9.77,24.97h-10.04c2.74,2.19,6.41,2.17,10.04,0Zm.88-12.47h-11.65c4.12,2.35,7.42,1.57,11.65,0Zm-1.15,37.43h-9.69c3.2,2.04,6.44,1.82,9.69,0Zm-.42-30.32c-.02-.26-.04-.51-.06-.77h-9.05v.77h9.1Zm-8.91,11.68c3.09,1.61,6.17,1.62,9.25,0h-9.25Zm9.19,13.33c0-.26,0-.53,0-.79h-9.13c0,.26,0,.53.01.79h9.11Zm-9.31-38.33c2.31,1.85,6.6,1.82,8.9,0h-8.9Z"/>
      <path class="cls-1" d="m124.89,84.96c.02.44.13,1.49.13,2.55.01,17.83-.05,35.66.07,53.48.02,2.87-.77,4.51-3.73,4.38-4.12-.19-8.37,0-12.3-1.02-7.32-1.89-14.43-3.57-21.89,1.08v-3.75c0-17.72.07-35.44-.07-53.16-.02-2.79,1.1-4.15,3.34-5.29,4.5-2.28,9.1-1.82,13.76-.78,2.77.62,5.52,1.46,8.32,1.78,3.96.44,7.96.49,12.36.73Zm-12.99,42.29c-6.1-2.25-11.51-5.01-17.69-2.49,5.69.8,11.39,1.6,17.69,2.49Zm-.5-30.9c-5.63-2.08-11.07-5.04-17.31-2.49,5.77.83,11.54,1.66,17.31,2.49Zm0,6.13c-9.65-4.02-13.88-4.55-17.11-2.44,5.4.77,10.87,1.55,17.11,2.44Zm-17.25,9.9c5.59.8,11.18,1.6,16.77,2.4-5.39-2.1-10.67-5-16.77-2.4Zm18.45-3.49c-6.37-2.19-11.99-5.13-18.43-2.72,5.93.88,11.87,1.75,18.43,2.72Zm-18.49,21.93c5.38.76,10.77,1.52,17.1,2.42-6.08-2.56-11.28-4.54-17.1-2.42Zm18.13-9.62c-5.95-2.25-11.65-5.03-18.18-2.76,5.96.9,11.92,1.81,18.18,2.76Zm-18.06,15.82c5.73.83,11.45,1.67,17.62,2.56-5.93-2.34-11.39-4.84-17.62-2.56Zm-.11-49.35c5.36.74,10.72,1.48,16.08,2.22-5.14-2.24-10.28-4.45-16.08-2.22Z"/>
      <path class="cls-1" d="m132.65,92.64v58.41c-.26.05-.52.11-.78.16-.31-.93-.88-1.85-.88-2.78-.04-19.25-.01-38.5.01-57.75,0-.31.17-.62.32-1.13h5.64v68.11c-1.28.07-2.54.19-3.8.19-11.49.02-22.98-.09-34.46.1-2.25.04-4.66.88-6.69,1.94-4.99,2.59-9.72,2.64-14.69-.04-1.93-1.04-4.23-1.86-6.38-1.9-11.05-.19-22.1-.09-33.15-.09-1.29,0-2.59,0-4.11,0v-68.29h5.52c.06,1.09.17,2.05.17,3,0,18.27.02,36.53-.03,54.8,0,1.3-.51,2.6-.78,3.9-.35-.07-.69-.13-1.04-.2v-58.26c-.26-.08-.52-.16-.78-.24-.36.95-1.03,1.9-1.02,2.85.06,19.46.19,38.92.32,58.38,0,.21.14.41.38,1.12.98,0,2.14,0,3.3,0,10.72,0,21.44-.08,32.16.08,1.95.03,4.1.67,5.77,1.67,3.78,2.24,9.93,2.33,13.76.22,1.9-1.05,4.21-1.84,6.36-1.88,10.94-.18,21.88-.08,32.82-.08,1.18,0,2.37,0,3.84,0,.08-1.3.2-2.34.2-3.39.01-18.27.03-36.53-.03-54.8,0-1.42-.57-2.85-.87-4.27-.36.06-.72.12-1.07.18Z"/>
      <path class="cls-1" d="m42.67,85.57c1.53,7.8.64,59.07-.97,60.9-1.21-6.16-.57-58.7.97-60.9Z"/>
      <path class="cls-1" d="m22.31,115.81c-.32-1.02-.12-2.82,2.23-3.01,3.03-.26,3.67,2.08,3.89,4.7,4.09-.33,2.89,2.44,2.19,4.22-.89,1.27-1.6,2.76-2.74,3.74-1.08.94-2.74,1.99-3.92,1.77-.88-.16-1.4-2.26-1.61-2.65-1.63-1.92-3.5-3.16-3.54-4.46-.04-1.19,1.89-2.45,3.5-4.31Z"/>
      <path class="cls-1" d="m31.27,140c.1,1.63,1.16,4.26-2.84,4.09-.21,2.57-.86,4.97-3.83,4.77-2.23-.15-2.69-1.91-2.32-2.97-1.48-1.89-3.14-3.18-3.49-4.75-.19-.86,1.82-2.21,3.4-3.95.4-.59,1.05-2.65,2.22-3.02,2.29-.72,3.3,1.09,3.92,3.26.27.92,1.68,1.52,2.94,2.56Z"/>
      <path class="cls-1" d="m21.66,95.35c1.04-1.47,1.89-2.67,2.73-3.86,1.25.96,2.58,1.83,3.73,2.91.9.85,1.56,1.94,2.33,2.93.25-.14.51-.28.76-.42v3.82c-.21-.12-.41-.24-.62-.36-.87,1.28-1.55,2.76-2.65,3.78-1.06.98-2.64,2.11-3.85,1.98-.86-.09-1.49-2.19-2.02-3.06-1.3-1.52-3.28-2.83-3.26-4.1.02-1.31,1.99-2.6,2.86-3.6Z"/>
      <path class="cls-1" d="m127.59,85.59c1.51,2.22,2.11,55.41.9,60.62-1.42-1.76-2.19-50.77-.9-60.62Z"/>
      <path class="cls-1" d="m145.31,99.68h-5.8c-1.49-3.53,1.33-2.76,2.89-3.2.19-1.01.37-1.94.57-2.99h5.15c0,3.59.06,7.15-.06,10.7-.02.49-.89,1.34-1.39,1.36-1.24.04-2.55-.14-3.69-.6-.29-.12-.27-1.68.02-2.4.34-.84,1.15-1.48,2.3-2.86Z"/>
      <path class="cls-1" d="m148.16,148.77c-2.15-.44-3.73-.77-5.32-1.09.45-1.62.9-3.24,1.4-5.02-1.3-.07-3.08-.18-4.85-.28-.22-.29-.44-.59-.66-.88.95-.88,1.9-1.77,2.84-2.65.22.19.43.38.65.57.28-1,.55-2.01.82-2.97,5.06-.91,5.12-.86,5.13,3.96,0,2.58,0,5.15,0,8.37Z"/>
      <path class="cls-1" d="m138.97,118.37c1.36-.1,2.31-.17,3.41-.25.18-1.03.34-1.95.54-3.08h5.02v11.61h-5.73c.92-2.02,1.67-3.69,2.47-5.46-1.29-1.49-5.24,1.96-5.71-2.81Z"/>
      <path class="cls-1" d="m84.66,33.82c1.71,1.87,2.83,3.09,3.95,4.32-1.21,1.05-2.29,2.72-3.66,3.01-1.86.39-4.01-.75-3.75-2.98.15-1.3,1.86-2.43,3.46-4.34Z"/>
      <path class="cls-1" d="m79.34,43.91h10.85c-.43,1.77-2.02,3.16-4.73,3.28-2.78.12-4.94-.9-6.12-3.28Z"/>
      <path class="cls-1" d="m94.46,23.21c-2.01,2.76-3.77,5.17-5.52,7.58-.94-4.8.68-6.75,5.52-7.58Z"/>
      <path class="cls-1" d="m75.04,23.19c4.75.83,6.41,2.79,5.63,7.47-1.78-2.37-3.56-4.73-5.63-7.47Z"/>
      <path class="cls-1" d="m105.4,38.01c-3.75,1.41-6.29.02-9.33-1.95,3.91-2.07,6.17.62,9.33,1.95Z"/>
      <path class="cls-1" d="m73.25,36.12c-2.88,1.85-5.39,3.32-9.17,1.9,3.11-1.37,5.33-4.08,9.17-1.9Z"/>
      <path class="cls-1" d="m36.05,46.53c-.34-.48-1.31-1.27-1.44-2.19-.27-1.88,2.66-4.71,4.77-4.5.89.09,2.22,1.1,2.41,1.92.44,1.87-2.81,4.78-5.74,4.78Z"/>
      <path class="cls-1" d="m47.91,29.65c-1.61,2.16-3.21,4.32-4.82,6.47-.31-.23-.61-.47-.92-.7.67-2.86,1.99-5.24,5.74-5.77Z"/>
      <path class="cls-1" d="m33.84,49.64c-1.65,2-3.31,4.01-4.96,6.01-.38-.29-.77-.59-1.15-.88,1.59-2.06,3.19-4.12,4.78-6.17.44.35.89.7,1.33,1.04Z"/>
      <path class="cls-1" d="m38.08,49.1c2.21-1.82,4.25-3.5,6.15-5.07.15,3.85-1.7,5.45-6.15,5.07Z"/>
      <path class="cls-1" d="m21.69,41.08l6.32-1.97c.17.51.34,1.03.5,1.54-2.12.66-4.23,1.33-6.35,1.99-.16-.52-.32-1.04-.48-1.56Z"/>
      <path class="cls-1" d="m32.46,37.19c-.87-2.1-1.75-4.2-2.62-6.3.48-.2.96-.41,1.45-.61.91,2.09,1.81,4.17,2.72,6.26-.51.22-1.03.43-1.54.65Z"/>
      <path class="cls-1" d="m129.15,39.74c2.9-.02,5.85,2.47,5.6,4.44-.11.85-1.21,2.08-2.03,2.25-2.01.4-5.38-2.64-5.1-4.55.13-.9,1.19-1.68,1.54-2.13Z"/>
      <path class="cls-1" d="m122.73,28.73c1.69,2.04,3.39,4.07,5.61,6.75-3.33-.37-5.17-2.5-6.34-6.14.24-.2.48-.4.73-.6Z"/>
      <path class="cls-1" d="m125.05,43.86c2.05,1.68,4.16,3.4,6.25,5.11-4.17.66-6.05-.9-6.25-5.11Z"/>
      <path class="cls-1" d="m136.86,48.54c1.61,2.05,3.23,4.11,4.84,6.16l-1.17.93c-1.66-2.01-3.32-4.03-4.98-6.04.44-.35.88-.7,1.31-1.04Z"/>
      <path class="cls-1" d="m135.41,36.51c.9-2.06,1.79-4.13,2.84-6.54,1.37,3.27,1,4.4-1.88,6.88-.32-.11-.64-.23-.96-.34Z"/>
      <path class="cls-1" d="m140.93,40.77c2.81-1.93,4.92-1.22,6.41,1.76-2.14-.59-4.27-1.17-6.41-1.76Z"/>
      <path d="m58.52,127.19c-3.48,1.6-6.77,2.36-10.8,0h10.8Z"/>
      <path d="m48.7,89.73h10.42c-3.92,1.62-7.09,2.24-10.42,0Z"/>
      <path d="m58.47,114.71c-3.63,2.17-7.3,2.19-10.04,0h10.04Z"/>
      <path d="m59.34,102.23c-4.24,1.57-7.54,2.35-11.65,0h11.65Z"/>
      <path d="m58.2,139.67c-3.25,1.82-6.48,2.04-9.69,0h9.69Z"/>
      <path d="m57.78,109.35h-9.09v-.77h9.03c.02.26.04.51.06.77Z"/>
      <path d="m48.87,121.03h9.25c-3.08,1.62-6.16,1.61-9.25,0Z"/>
      <path d="m58.06,134.36h-9.11c0-.26,0-.53-.01-.79h9.13c0,.26,0,.53,0,.79Z"/>
      <path d="m48.74,96.04h8.9c-2.29,1.82-6.59,1.85-8.9,0Z"/>
      <path d="m111.9,127.25c-6.31-.89-12-1.69-17.69-2.49,6.18-2.52,11.59.24,17.69,2.49Z"/>
      <path d="m111.4,96.35c-5.77-.83-11.54-1.66-17.31-2.49,6.23-2.55,11.68.41,17.31,2.49Z"/>
      <path d="m111.4,102.48c-6.23-.89-11.7-1.67-17.11-2.44,3.22-2.11,7.45-1.58,17.11,2.44Z"/>
      <path d="m94.15,112.38c6.1-2.61,11.37.3,16.77,2.4-5.59-.8-11.18-1.6-16.77-2.4Z"/>
      <path d="m112.6,108.89c-6.56-.97-12.49-1.84-18.43-2.72,6.44-2.41,12.06.53,18.43,2.72Z"/>
      <path d="m94.12,130.82c5.82-2.13,11.02-.14,17.1,2.42-6.33-.89-11.71-1.66-17.1-2.42Z"/>
      <path d="m112.25,121.2c-6.27-.95-12.22-1.85-18.18-2.76,6.53-2.27,12.23.51,18.18,2.76Z"/>
      <path d="m94.19,137.02c6.22-2.28,11.68.22,17.62,2.56-6.17-.9-11.89-1.73-17.62-2.56Z"/>
      <path d="m94.09,87.67c5.8-2.23,10.94-.02,16.08,2.22-5.36-.74-10.72-1.48-16.08-2.22Z"/>
    </g>
  </g>
</svg>